<?xml version="1.0" encoding="UTF-8" standalone="no"?>
<!DOCTYPE svg PUBLIC "-//W3C//DTD SVG 1.1//EN" "http://www.w3.org/Graphics/SVG/1.1/DTD/svg11.dtd">
<svg width="100%" height="100%" viewBox="0 0 1444 1444" version="1.1" xmlns="http://www.w3.org/2000/svg" xmlns:xlink="http://www.w3.org/1999/xlink" xml:space="preserve" xmlns:serif="http://www.serif.com/" style="fill-rule:evenodd;clip-rule:evenodd;stroke-linejoin:round;stroke-miterlimit:2;">
    <g transform="matrix(68.88524,0,0,67.927418,-104.622883,-61.077301)">
        <path d="M7.5,16C5.983,16 4.688,15.463 3.613,14.388C2.538,13.313 2.001,12.017 2,10.5C2,9.117 2.458,7.908 3.375,6.875C4.292,5.842 5.425,5.233 6.775,5.05C7.308,4.1 8.038,3.354 8.963,2.812C9.888,2.27 10.901,1.999 12,2C13.5,2 14.804,2.479 15.913,3.438C17.022,4.397 17.692,5.592 17.925,7.025C19.075,7.125 20.042,7.6 20.825,8.45C21.608,9.3 22,10.317 22,11.5C22,12.75 21.563,13.813 20.688,14.688C19.813,15.563 18.751,16.001 17.5,16L7.5,16Z" style="fill:rgb(95,114,133);fill-rule:nonzero;"/>
    </g>
    <g transform="matrix(0,-42.257849,42.257849,0,236.045044,1353.416429)">
        <path d="M4,15L4,8.5C4,6.031 6.031,4 8.5,4C10.969,4 13,6.031 13,8.5L13,15.5C13,16.871 14.129,18 15.5,18C16.871,18 18,16.871 18,15.5L18,8.83C16.804,8.407 15.999,7.269 15.999,6.001C15.999,4.354 17.354,3 19,3C20.646,3 22.001,4.354 22.001,6.001C22.001,7.269 21.196,8.407 20,8.83L20,15.5C20,17.969 17.969,20 15.5,20C13.031,20 11,17.969 11,15.5L11,8.5C11,7.129 9.871,6 8.5,6C7.129,6 6,7.129 6,8.5L6,15L9,15L5,20L1,15L4,15Z" style="fill:none;fill-rule:nonzero;stroke:rgb(78,93,109);stroke-width:4.12px;"/>
        <path d="M4,15L4,8.5C4,6.031 6.031,4 8.5,4C10.969,4 13,6.031 13,8.5L13,15.5C13,16.871 14.129,18 15.5,18C16.871,18 18,16.871 18,15.5L18,8.83C16.804,8.407 15.999,7.269 15.999,6.001C15.999,4.354 17.354,3 19,3C20.646,3 22.001,4.354 22.001,6.001C22.001,7.269 21.196,8.407 20,8.83L20,15.5C20,17.969 17.969,20 15.5,20C13.031,20 11,17.969 11,15.5L11,8.5C11,7.129 9.871,6 8.5,6C7.129,6 6,7.129 6,8.5L6,15L9,15L5,20L1,15L4,15Z" style="fill:white;fill-rule:nonzero;"/>
    </g>
</svg>
